<?xml version="1.0" standalone="no"?>
<!DOCTYPE svg PUBLIC "-//W3C//DTD SVG 20010904//EN"
 "http://www.w3.org/TR/2001/REC-SVG-20010904/DTD/svg10.dtd">
<svg version="1.0" xmlns="http://www.w3.org/2000/svg"
 width="330.000000pt" height="427.000000pt" viewBox="0 0 330.000000 427.000000"
 preserveAspectRatio="xMidYMid meet">
<metadata>
Created by potrace 1.16, written by Peter Selinger 2001-2019
</metadata>
<g transform="translate(0.000000,427.000000) scale(0.100000,-0.100000)"
fill="#000000" stroke="none">
<path d="M2075 4189 c-473 -3 -1114 -7 -1424 -8 l-563 -1 6 -117 c3 -65 8
-563 12 -1108 3 -544 7 -1030 9 -1080 2 -49 4 -467 6 -927 1 -594 5 -838 13
-840 6 -2 697 -1 1535 2 l1524 5 -2 150 c0 83 -6 839 -11 1680 -5 842 -13
1693 -16 1893 l-6 362 -112 -2 c-61 -1 -498 -5 -971 -9z m1075 -191 c0 -101 5
-703 10 -1338 5 -635 10 -1463 12 -1840 l3 -685 -46 -3 -46 -3 -21 58 c-12 32
-24 78 -27 103 -7 44 -37 146 -55 185 -5 11 -22 49 -38 85 -34 76 -76 130
-102 130 -10 0 -21 4 -25 9 -7 12 -84 65 -107 73 -15 6 -228 136 -358 219 -80
51 -113 91 -199 237 -22 38 -53 81 -69 94 -16 13 -26 30 -24 38 3 8 2 12 -2 9
-17 -15 -15 -60 3 -91 24 -39 55 -301 46 -383 -2 -27 -7 -88 -10 -135 -7 -115
-15 -170 -26 -170 -5 0 -9 4 -9 10 0 19 -127 70 -175 70 -12 0 -28 12 -38 30
-23 39 -40 38 -59 -3 -16 -33 -17 -34 -97 -40 -86 -7 -119 -21 -141 -61 -16
-32 -7 -68 28 -107 27 -30 31 -31 77 -25 34 6 57 16 77 37 16 16 31 29 32 29
2 0 -1 -22 -7 -49 -7 -36 -13 -48 -23 -44 -8 3 -14 13 -15 22 -1 13 -17 -30
-46 -124 -3 -11 10 -1 28 22 19 23 38 42 43 42 5 1 6 -26 2 -60 -3 -34 -6 -89
-6 -123 l0 -61 -46 70 c-25 39 -53 80 -62 92 -50 68 -304 495 -355 598 -118
238 -184 431 -169 489 6 23 3 28 33 -54 24 -64 456 -468 473 -442 3 5 -4 14
-14 22 -14 10 -16 18 -9 31 7 13 5 21 -8 28 -17 10 -16 11 2 12 11 1 24 1 28
0 5 -1 6 8 2 19 -7 22 5 26 23 8 12 -12 11 5 -3 47 -6 16 -5 17 4 5 12 -17 14
-6 5 39 -4 21 -12 31 -24 31 -22 0 -33 26 -21 48 5 10 8 32 7 49 -1 20 2 29
10 26 7 -2 15 0 19 6 3 6 13 11 22 11 8 0 57 21 109 47 67 33 91 50 84 58 -5
7 -8 14 -5 17 3 2 -9 3 -25 0 -17 -2 -33 -9 -37 -15 -4 -7 5 -8 25 -4 19 4 32
2 32 -3 0 -6 -6 -10 -12 -11 -96 -6 -175 -5 -185 3 -7 5 -18 8 -25 5 -7 -2
-23 5 -36 16 -17 16 -25 18 -34 9 -9 -9 -9 -12 2 -12 7 0 11 -3 7 -6 -3 -3
-26 3 -50 14 -25 11 -48 18 -51 14 -3 -3 -6 0 -6 6 0 7 4 12 10 12 6 0 6 9 -1
23 -8 19 -17 23 -42 19 -24 -2 -28 -1 -18 7 12 8 12 12 2 25 -8 9 -18 16 -23
16 -5 0 -26 18 -48 40 -22 22 -45 40 -52 40 -10 1 -9 4 2 13 13 10 10 17 -19
47 -18 19 -31 27 -28 18 8 -24 -19 -24 -32 0 -6 9 -11 13 -11 7 0 -5 -5 -3
-10 5 -9 13 -11 13 -21 0 -8 -12 -9 -11 -4 6 4 14 0 24 -10 27 -8 4 -12 13 -9
20 3 8 -2 17 -11 21 -9 3 -13 11 -9 17 4 8 3 9 -5 5 -8 -5 -9 -20 -5 -44 l7
-37 -30 30 c-52 53 -67 95 -33 95 20 0 40 27 33 46 -7 19 31 42 77 46 65 7
112 -21 151 -90 17 -30 65 -90 107 -133 88 -91 147 -119 255 -120 80 -1 119
18 209 103 57 54 66 67 61 90 -5 25 -2 27 64 47 38 12 84 24 102 27 37 8 61
49 40 68 -9 8 -10 7 -6 -6 9 -24 -28 -24 -43 0 -9 14 -10 13 -4 -7 4 -15 2
-21 -4 -17 -5 3 -12 0 -15 -7 -11 -30 -106 -45 -262 -42 -148 3 -371 26 -430
44 -57 19 -110 40 -100 42 6 0 -1 4 -14 8 -14 4 -26 13 -29 21 -3 12 -2 13 6
1 7 -10 14 -11 28 -2 11 6 14 11 8 11 -6 0 -14 14 -18 30 -5 29 -26 43 -26 18
0 -6 -7 -3 -16 8 -8 10 -13 14 -10 8 3 -6 -1 -11 -9 -11 -8 0 -15 1 -15 2 0 1
25 27 56 58 31 31 53 60 50 65 -8 14 -52 3 -75 -19 -24 -23 -35 -24 -27 -4 3
8 1 15 -4 15 -6 0 -10 -4 -10 -10 0 -5 -6 -10 -14 -10 -8 0 -21 -6 -28 -13
-11 -12 -22 -11 -66 3 -35 12 -52 14 -53 6 0 -6 -5 3 -10 19 -5 17 -7 41 -4
55 5 22 4 23 -6 7 -6 -11 -8 -32 -5 -48 4 -20 2 -28 -5 -23 -6 3 -9 24 -7 48
3 22 1 53 -3 69 -5 16 -4 27 2 27 6 0 8 9 4 19 -3 11 -1 22 5 26 9 6 14 -10
13 -42 -1 -20 7 -15 17 11 9 24 -1 83 -13 79 -20 -8 -27 0 -27 28 0 20 4 28
11 23 7 -4 10 -1 7 7 -7 21 -33 17 -33 -5 0 -11 -6 -21 -13 -22 -7 -1 -8 0 -2
3 7 3 4 10 -7 18 -15 11 -15 17 -5 39 12 27 4 34 -16 14 -9 -9 -12 -8 -12 5 0
9 5 17 11 17 6 0 9 9 6 20 -3 13 1 21 15 26 16 5 18 8 7 15 -11 7 -10 9 4 9 9
0 17 5 17 10 0 6 8 10 18 10 14 0 15 2 2 10 -13 9 -13 10 0 10 8 0 26 3 39 7
15 4 22 2 18 -4 -13 -20 94 -83 141 -83 31 0 52 15 30 22 -15 5 -1 28 17 28 8
0 19 -9 25 -20 7 -13 20 -20 38 -19 26 0 26 1 5 9 -32 13 -29 15 22 15 31 0
44 -4 41 -12 -3 -7 1 -10 10 -6 7 3 14 11 14 19 0 8 4 14 9 14 11 0 26 -20 26
-35 0 -13 37 -13 42 1 2 5 -17 25 -42 44 -52 39 -52 52 0 21 20 -12 46 -23 58
-25 27 -4 32 -20 12 -40 -9 -9 -14 -20 -11 -24 6 -10 -41 -64 -68 -79 -18 -10
-18 -11 -1 -37 10 -14 21 -26 26 -26 5 0 9 -9 9 -20 0 -23 0 -23 34 -10 14 5
26 7 26 5 0 -8 -32 -44 -82 -94 -49 -49 -68 -93 -51 -120 10 -16 133 -42 198
-43 79 0 95 2 95 17 0 8 -6 15 -14 15 -8 0 -16 7 -20 15 -3 8 -17 20 -31 27
-14 6 -25 15 -25 20 0 5 5 6 11 3 6 -4 5 2 -3 14 -7 12 -19 21 -26 21 -10 0
-12 6 -7 18 4 9 11 31 15 48 11 46 19 56 42 48 18 -5 19 -4 7 8 -7 8 -21 13
-30 11 -26 -7 -32 15 -10 38 11 12 17 27 13 33 -3 6 -7 40 -7 76 0 51 -3 65
-15 65 -22 0 -33 22 -34 74 -1 25 -10 61 -19 80 -9 19 -17 38 -17 43 0 14 -27
38 -34 31 -3 -4 -12 2 -20 12 -12 16 -24 17 -110 12 -56 -3 -96 -2 -96 4 0 5
-4 9 -10 9 -5 0 -10 -5 -10 -11 0 -13 -40 -48 -55 -48 -5 0 2 11 18 24 26 23
37 65 18 65 -5 0 -7 9 -4 20 3 12 8 19 10 16 8 -8 33 21 33 37 0 16 -46 51
-58 43 -4 -2 -6 11 -4 30 2 18 8 32 12 29 5 -3 6 -14 3 -25 -3 -13 1 -22 12
-26 22 -9 37 7 25 26 -8 13 -10 12 -10 -2 0 -10 -4 -18 -9 -18 -4 0 -6 12 -3
26 3 16 -1 30 -9 35 -11 7 -11 11 -2 17 7 4 24 33 38 65 15 31 28 57 30 57 3
0 19 -7 37 -15 18 -8 74 -26 123 -40 50 -15 109 -33 133 -42 41 -15 44 -14 63
5 20 22 19 22 134 6 22 -3 51 -6 65 -6 14 0 33 -4 43 -10 14 -7 22 -5 32 9 20
26 107 27 140 1 14 -11 23 -23 20 -28 -10 -16 12 -20 31 -6 15 12 24 11 58 -6
23 -11 48 -24 56 -29 46 -29 80 -36 155 -34 44 2 87 4 95 6 11 3 14 -3 12 -18
-2 -12 2 -31 8 -43 6 -11 8 -26 4 -32 -11 -17 -11 -72 -1 -79 5 -4 10 -22 12
-40 1 -19 5 -49 10 -68 8 -38 -10 -36 -25 3 -7 17 -9 12 -9 -24 -1 -34 2 -41
11 -32 15 15 28 15 28 1 0 -5 -4 -7 -10 -4 -6 4 -10 -8 -10 -29 0 -19 4 -37 9
-40 5 -3 7 -14 4 -24 -2 -10 5 -28 16 -41 26 -30 27 -77 5 -215 -14 -81 -20
-102 -33 -102 -13 0 -17 9 -15 40 2 30 0 36 -7 23 -11 -19 -30 -23 -27 -6 2 6
-5 13 -14 14 -22 4 -22 -4 -2 -56 14 -33 14 -43 4 -49 -8 -5 -10 -17 -6 -35 4
-17 3 -24 -4 -20 -18 11 -10 -7 12 -26 l21 -19 -22 0 c-12 0 -20 4 -16 9 3 5
1 12 -4 15 -5 3 -8 24 -7 46 2 38 -13 59 -15 23 -1 -10 -3 -28 -4 -40 -1 -13
2 -23 6 -23 5 0 9 -4 9 -10 0 -5 -8 -10 -17 -10 -15 0 -14 -2 3 -15 18 -13 17
-14 -19 -15 -22 0 -36 -4 -32 -10 7 -11 64 -2 83 13 11 8 12 5 6 -18 -4 -18
-3 -26 3 -22 6 4 13 -2 16 -13 6 -23 -3 -26 -21 -8 -9 9 -12 7 -12 -10 0 -12
-9 -27 -20 -34 -11 -7 -20 -18 -20 -25 0 -7 -7 -10 -15 -7 -10 4 -15 0 -15
-11 0 -11 5 -15 15 -11 9 3 15 0 15 -9 0 -8 -8 -15 -17 -16 -11 0 -13 -3 -5
-6 6 -2 12 -11 12 -19 0 -9 -5 -12 -12 -8 -8 5 -9 -2 -5 -24 5 -25 2 -33 -18
-46 -14 -9 -25 -23 -25 -32 0 -8 -7 -17 -15 -20 -8 -4 -15 -12 -15 -20 0 -7
-6 -17 -13 -21 -8 -4 -22 -20 -31 -35 -12 -18 -23 -25 -33 -21 -12 5 -15 2
-10 -10 4 -12 1 -17 -9 -17 -9 0 -29 -9 -45 -21 -16 -11 -29 -18 -29 -14 0 3
-10 -3 -22 -15 -12 -11 -32 -20 -45 -20 -14 0 -23 -6 -23 -15 0 -9 6 -12 18
-8 9 3 14 3 10 -2 -4 -4 -22 -11 -40 -15 -18 -3 -32 -12 -30 -19 2 -9 -3 -9
-17 -2 -18 10 -31 6 -31 -11 0 -4 8 -8 18 -9 10 0 12 -3 5 -6 -7 -2 -13 -9
-13 -15 0 -6 7 -5 16 3 9 7 22 14 28 15 7 1 31 14 54 28 53 33 64 33 52 0 -12
-31 -12 -34 -1 -34 5 0 12 16 15 35 5 27 17 42 49 62 157 99 223 162 247 236
9 30 16 37 29 32 63 -26 118 -19 164 22 32 28 44 37 132 102 44 32 87 66 97
77 32 37 87 150 98 200 12 57 5 87 -33 128 -20 21 -26 24 -31 11 -3 -10 1 -15
12 -15 22 0 42 -44 42 -89 0 -34 -47 -152 -49 -123 -1 7 5 25 13 40 19 38 26
110 14 137 -8 18 -16 21 -46 18 -50 -5 -142 -34 -142 -44 0 -5 -6 -9 -12 -9
-7 0 -21 -14 -30 -30 -15 -26 -15 -32 -3 -36 18 -7 39 -69 31 -91 -5 -12 -9
-13 -21 -3 -14 11 -14 10 -7 -11 16 -42 -11 -83 -50 -77 -18 2 -22 8 -20 28 3
23 1 22 -32 -14 -20 -21 -36 -45 -36 -52 0 -17 32 -18 48 -2 16 16 25 4 17
-21 -4 -15 -15 -21 -34 -21 -15 0 -31 3 -35 7 -23 24 -51 0 -40 -34 5 -15 4
-16 -5 -3 -9 13 -11 12 -11 -6 0 -12 7 -27 15 -34 8 -7 15 -9 15 -6 0 4 7 0
16 -8 8 -9 19 -14 24 -11 5 3 11 1 14 -4 3 -5 -7 -14 -23 -19 -21 -7 -36 -6
-59 5 -30 14 -31 18 -30 69 1 30 5 54 9 54 4 0 13 17 19 38 7 20 21 57 32 82
11 24 24 55 29 68 5 13 13 20 19 17 5 -3 10 3 10 14 0 27 10 51 22 51 6 0 8
-6 5 -14 -3 -7 -2 -17 3 -22 5 -5 11 -24 13 -42 7 -42 13 -48 31 -33 19 16 27
93 8 86 -7 -2 -10 0 -7 5 3 6 0 10 -7 10 -7 0 0 11 16 25 16 14 26 25 21 25
-4 0 3 9 16 19 14 11 20 23 15 28 -5 4 -11 2 -13 -5 -3 -6 -9 -10 -14 -6 -5 3
-9 0 -9 -6 0 -6 -4 -8 -10 -5 -5 3 -10 0 -10 -8 0 -8 -7 -20 -16 -28 -8 -7
-13 -21 -11 -31 3 -10 1 -20 -3 -23 -20 -12 -21 55 -1 93 20 38 36 51 75 59
11 2 26 9 35 16 9 8 12 8 8 1 -4 -7 0 -17 8 -24 13 -11 14 -10 10 2 -3 8 1 21
10 28 14 12 15 10 9 -15 -5 -20 -4 -26 5 -21 6 4 9 11 6 16 -10 15 24 32 52
25 21 -5 25 -3 17 5 -6 6 -28 12 -48 13 l-36 2 -1 95 c0 52 -1 109 -1 125 -1
17 4 62 11 100 17 97 -8 261 -55 355 -19 37 -28 67 -23 71 6 3 4 11 -5 18 -8
7 -33 44 -57 84 -94 161 -207 298 -272 330 -18 9 -63 28 -102 43 -38 14 -87
34 -107 44 l-37 17 25 12 c14 6 32 11 40 11 9 0 12 5 8 11 -5 8 -30 10 -83 5
-42 -4 -80 -7 -86 -7 -5 -1 -47 12 -92 28 l-81 28 14 28 c12 22 12 31 2 50 -7
12 -11 30 -9 40 3 24 -10 21 -76 -17 -58 -34 -155 -54 -333 -70 -30 -3 -70
-10 -88 -15 -42 -13 -140 -66 -169 -93 -21 -19 -24 -19 -85 -4 -36 9 -72 16
-82 16 -37 0 -96 -24 -128 -51 l-33 -28 73 3 c77 3 90 -4 42 -24 -80 -33 -117
-67 -150 -136 -39 -84 -49 -159 -27 -204 18 -34 19 -29 -29 -112 -6 -11 -23
-31 -37 -46 -47 -51 -57 -84 -55 -182 l3 -91 -33 -27 c-18 -15 -33 -36 -33
-47 -2 -37 22 -140 38 -164 l15 -24 -48 6 c-98 11 -147 -18 -168 -98 -11 -43
-10 -58 5 -108 27 -90 70 -156 152 -236 26 -25 59 -65 72 -87 13 -23 41 -56
61 -74 31 -27 43 -31 78 -28 22 3 48 8 57 12 14 6 20 -5 38 -62 25 -83 65
-131 171 -205 41 -29 75 -59 74 -65 -1 -7 -2 -32 -2 -57 -2 -37 -5 -45 -21
-45 -29 0 -67 -35 -117 -111 -95 -141 -296 -301 -589 -467 -61 -35 -136 -85
-168 -112 -32 -28 -65 -50 -72 -50 -17 0 -20 130 -23 980 -1 344 -4 659 -7
700 -2 41 -7 445 -10 897 l-6 823 988 2 c543 2 1228 4 1521 6 l532 3 0 -183z
m-1452 -633 c-3 -3 -9 2 -12 12 -6 14 -5 15 5 6 7 -7 10 -15 7 -18z m282 -45
c16 -16 17 -20 5 -20 -8 0 -15 5 -15 11 0 5 -4 7 -10 4 -5 -3 -10 1 -10 9 0
21 6 20 30 -4z m120 -40 c6 -11 8 -20 6 -20 -3 0 -10 9 -16 20 -6 11 -8 20 -6
20 3 0 10 -9 16 -20z m-516 -16 c5 -14 4 -15 -9 -4 -17 14 -19 20 -6 20 5 0
12 -7 15 -16z m113 -29 c0 -8 -4 -12 -9 -9 -5 3 -6 10 -3 15 9 13 12 11 12 -6z
m-232 -33 c-3 -3 -11 0 -18 7 -9 10 -8 11 6 5 10 -3 15 -9 12 -12z m709 2 c3
-8 2 -12 -4 -9 -6 3 -10 10 -10 16 0 14 7 11 14 -7z m-177 -21 c-4 -3 -1 -13
6 -21 11 -13 9 -14 -10 -1 -16 9 -19 16 -10 21 15 9 23 10 14 1z m453 -33 c0
-5 -5 -10 -11 -10 -5 0 -7 5 -4 10 3 6 8 10 11 10 2 0 4 -4 4 -10z m140 -10
c6 -11 8 -20 6 -20 -3 0 -10 9 -16 20 -6 11 -8 20 -6 20 3 0 10 -9 16 -20z
m-1423 -66 c-2 -38 -12 -44 -20 -14 -3 11 -1 18 4 14 5 -3 9 2 9 10 0 9 -4 16
-10 16 -5 0 -10 4 -10 10 0 5 7 7 15 4 10 -4 14 -17 12 -40z m1523 -68 c0 -9
-4 -16 -10 -16 -5 0 -7 7 -4 15 4 8 1 15 -5 15 -6 0 -11 7 -11 16 0 14 2 14
15 0 8 -8 15 -22 15 -30z m15 -81 c6 -30 6 -30 -10 4 -17 38 -19 49 -6 36 5
-6 12 -23 16 -40z m-1475 12 c0 -8 -7 -14 -15 -14 -8 0 -15 6 -15 14 0 7 7 13
15 13 8 0 15 -6 15 -13z m-200 -57 c0 -11 -4 -20 -8 -20 -4 0 -8 9 -8 20 0 11
4 20 8 20 4 0 8 -9 8 -20z m147 -26 c-3 -3 -12 -4 -19 -1 -8 3 -5 6 6 6 11 1
17 -2 13 -5z m1490 -16 c-3 -8 -6 -5 -6 6 -1 11 2 17 5 13 3 -3 4 -12 1 -19z
m-1467 -8 c0 -5 -2 -10 -4 -10 -3 0 -8 5 -11 10 -3 6 -1 10 4 10 6 0 11 -4 11
-10z m1417 -32 c-3 -8 -6 -5 -6 6 -1 11 2 17 5 13 3 -3 4 -12 1 -19z m80 -10
c-3 -8 -6 -5 -6 6 -1 11 2 17 5 13 3 -3 4 -12 1 -19z m-1732 -19 c-5 -14 -3
-19 3 -15 6 4 8 -2 4 -16 -3 -14 -2 -19 6 -14 8 5 12 -1 12 -17 0 -20 -4 -24
-19 -20 -13 3 -21 -1 -24 -14 -3 -12 -5 -10 -6 9 0 14 5 29 12 31 7 4 6 6 -4
6 -10 1 -20 -10 -24 -26 -4 -16 -9 -23 -12 -16 -2 6 7 34 22 62 26 52 42 68
30 30z m1578 -32 c-4 -7 -8 -6 -11 3 -3 8 -10 22 -16 30 -6 8 -1 7 11 -4 13
-10 20 -23 16 -29z m90 23 c3 -11 1 -18 -4 -14 -5 3 -9 12 -9 20 0 20 7 17 13
-6z m-1269 -19 c3 -5 22 -12 41 -15 31 -6 50 -26 25 -26 -6 0 -10 -6 -9 -12 4
-30 -3 -37 -43 -42 -85 -10 -147 -13 -143 -6 3 5 -2 11 -10 14 -17 6 -18 63
-1 73 30 19 131 29 140 14z m-164 -71 c0 -5 -2 -10 -4 -10 -3 0 -8 5 -11 10
-3 6 -1 10 4 10 6 0 11 -4 11 -10z m367 -167 c-9 -9 -20 -13 -24 -9 -5 5 -2
11 5 13 6 3 12 12 12 21 0 12 3 13 12 4 10 -9 8 -16 -5 -29z m-1062 -13 c3 -5
1 -10 -4 -10 -6 0 -11 5 -11 10 0 6 2 10 4 10 3 0 8 -4 11 -10z m62 -10 c-4
-28 -15 -35 -12 -8 3 27 3 28 10 28 3 0 4 -9 2 -20z m186 -26 c5 -27 -13 -33
-33 -9 -10 12 -10 15 0 15 7 0 10 7 7 14 -4 10 -1 13 7 10 8 -3 16 -16 19 -30z
m-123 -24 c14 -10 23 -20 20 -22 -3 -2 -25 -14 -49 -26 -38 -19 -42 -20 -36
-5 4 10 10 30 13 46 5 32 18 34 52 7z m2067 -42 c-3 -7 -5 -2 -5 12 0 14 2 19
5 13 2 -7 2 -19 0 -25z m-1177 -18 c0 -5 -4 -10 -10 -10 -5 0 -10 5 -10 10 0
6 5 10 10 10 6 0 10 -4 10 -10z m-722 -52 c17 -17 15 -33 -3 -18 -12 10 -15
10 -15 -4 0 -9 5 -17 10 -17 6 -1 15 -2 22 -3 17 -2 14 -96 -3 -107 -9 -5 -15
-4 -18 4 -2 7 -13 26 -23 42 l-20 30 25 -27 c23 -25 37 -27 37 -6 0 5 -5 6
-11 2 -8 -4 -9 1 -4 17 4 17 3 20 -3 10 -7 -10 -11 -10 -17 -1 -4 7 -2 16 5
20 9 5 9 9 1 14 -13 8 -15 56 -3 56 4 0 13 -5 20 -12z m2052 -71 c-1 -47 -28
-124 -30 -87 -1 8 -3 25 -4 38 -2 12 1 22 5 22 4 0 7 9 6 20 -1 12 -12 23 -30
30 -24 8 -27 7 -18 -4 8 -10 8 -16 -4 -26 -8 -7 -12 -17 -8 -23 4 -6 8 -37 11
-69 2 -42 -1 -65 -14 -87 -21 -36 -67 -72 -94 -74 -11 -1 -20 -5 -20 -9 0 -18
-26 -6 -27 12 -1 11 4 20 10 18 19 -3 76 30 92 56 29 43 28 95 -1 138 -15 21
-30 35 -35 32 -5 -3 -9 -1 -9 5 0 16 31 29 53 23 13 -3 18 -1 14 5 -8 12 38
27 53 18 6 -4 10 -2 10 2 0 5 9 9 20 10 18 2 20 -4 20 -50z m-2113 11 c0 -18
3 -41 8 -51 7 -17 6 -18 -11 -7 -23 14 -46 59 -38 72 3 5 12 4 20 -3 11 -9 14
-8 14 5 0 9 2 16 4 16 3 0 4 -15 3 -32z m1709 -46 c-4 -3 -11 0 -16 8 -15 24
-11 33 6 15 9 -9 13 -19 10 -23z m-1479 6 c-3 -8 -6 -5 -6 6 -1 11 2 17 5 13
3 -3 4 -12 1 -19z m-300 -72 c-2 -5 -9 -12 -17 -14 -9 -3 -11 1 -7 11 4 11 2
14 -9 10 -8 -3 -14 1 -14 11 0 13 4 14 25 4 14 -6 24 -16 22 -22z m827 13 c-6
-11 -24 -2 -24 11 0 5 7 7 15 4 8 -4 12 -10 9 -15z m990 6 c-4 -8 -8 -15 -10
-15 -2 0 -4 7 -4 15 0 8 4 15 10 15 5 0 7 -7 4 -15z m-39 -5 c3 -5 1 -10 -4
-10 -6 0 -11 5 -11 10 0 6 2 10 4 10 3 0 8 -4 11 -10z m-1608 -35 c1 -17 -1
-23 -3 -14 -3 10 -14 19 -26 22 -24 7 -14 30 10 25 11 -2 18 -14 19 -33z m-74
1 c20 -15 23 -36 5 -36 -18 1 -48 25 -48 39 0 15 21 14 43 -3z m1693 -23 c-11
-11 -17 4 -9 23 7 18 8 18 11 1 2 -10 1 -21 -2 -24z m299 -113 c-16 -16 -33
-30 -38 -30 -9 0 53 60 62 60 3 0 -8 -13 -24 -30z m-330 -20 c3 -5 1 -10 -4
-10 -6 0 -11 5 -11 10 0 6 2 10 4 10 3 0 8 -4 11 -10z m219 -49 c3 -5 -1 -11
-9 -15 -9 -3 -15 0 -15 9 0 16 16 20 24 6z m-86 -24 c2 -10 -3 -17 -12 -17
-10 0 -16 9 -16 21 0 24 23 21 28 -4z m-1493 -37 c3 -5 1 -10 -4 -10 -6 0 -11
5 -11 10 0 6 2 10 4 10 3 0 8 -4 11 -10z m340 -20 c3 -5 2 -10 -4 -10 -5 0
-13 5 -16 10 -3 6 -2 10 4 10 5 0 13 -4 16 -10z m108 -32 c-1 -19 6 -29 33
-42 44 -20 75 -21 68 -1 -4 9 -15 12 -33 9 -22 -5 -29 -1 -39 21 l-12 27 62
-7 c67 -8 80 -17 72 -51 -6 -25 23 -37 50 -22 21 12 36 0 16 -12 -8 -5 -12
-11 -9 -14 2 -3 11 -1 18 3 11 7 11 15 2 41 -6 18 -8 36 -6 41 7 11 125 10
125 -1 0 -11 -37 -23 -48 -16 -7 4 -42 -27 -42 -38 0 -9 95 25 110 39 22 20
50 19 50 -2 0 -23 -29 -53 -52 -53 -10 0 -18 -5 -18 -11 0 -5 -4 -7 -10 -4 -5
3 -15 -3 -22 -15 -7 -11 -20 -20 -30 -20 -9 0 -19 -4 -23 -9 -3 -6 -19 -8 -35
-6 -22 3 -34 -2 -45 -18 -12 -18 -15 -18 -15 -5 0 11 -5 15 -14 12 -7 -3 -30
4 -50 15 -20 12 -42 21 -49 21 -7 0 -24 11 -39 24 -14 14 -28 23 -30 20 -3 -2
-13 5 -23 16 -18 20 -14 57 5 45 6 -4 8 -10 5 -15 -6 -9 25 -23 33 -15 3 3 0
5 -6 5 -7 0 -12 6 -12 14 0 8 -7 16 -15 20 -25 9 -18 36 8 32 16 -3 22 -10 20
-28z m-309 -237 c4 -5 -3 -7 -14 -4 -23 6 -26 13 -6 13 8 0 17 -4 20 -9z m36
-37 c0 -14 -3 -14 -15 -4 -8 7 -15 14 -15 16 0 2 7 4 15 4 8 0 15 -7 15 -16z
m517 -170 c-3 -3 -12 -4 -19 -1 -8 3 -5 6 6 6 11 1 17 -2 13 -5z m-190 -320
c-3 -3 -12 -4 -19 -1 -8 3 -5 6 6 6 11 1 17 -2 13 -5z m20 -30 c-3 -3 -12 -4
-19 -1 -8 3 -5 6 6 6 11 1 17 -2 13 -5z m3 -38 c0 -2 -7 -7 -16 -10 -8 -3 -12
-2 -9 4 6 10 25 14 25 6z m143 -356 l28 0 -21 -30 c-27 -38 -71 -69 -109 -76
-29 -6 -31 -5 -31 25 0 18 7 46 16 63 14 28 19 30 52 24 21 -3 50 -6 65 -6z
m308 -41 c18 -28 10 -39 -28 -39 -31 0 -44 7 -74 40 -20 22 -34 41 -32 43 8 8
125 -30 134 -44z m-1 -199 c-11 -47 -20 -97 -20 -112 0 -45 -15 -32 -34 28
-13 41 -15 59 -7 67 14 14 14 64 1 72 -23 14 -9 34 28 37 20 2 40 1 44 -2 4
-3 -2 -43 -12 -90z m-229 -52 c-12 -111 -30 -148 -32 -68 -3 90 0 123 13 168
13 42 13 43 20 15 5 -15 4 -67 -1 -115z m89 31 c0 -11 7 -34 17 -52 18 -35 33
-88 37 -127 1 -14 5 -30 9 -36 12 -20 -6 -24 -107 -23 -73 1 -90 3 -63 9 20 4
39 9 41 11 7 7 46 198 46 224 0 15 4 24 10 20 6 -3 10 -15 10 -26z"/>
<path d="M1955 2730 c-11 -5 -36 -9 -55 -9 -41 -1 -100 -34 -100 -56 0 -8 -6
-24 -12 -35 -18 -28 3 -50 28 -29 9 8 19 12 21 10 7 -6 67 21 88 40 23 20 111
43 127 33 7 -4 8 -2 4 4 -4 7 -2 12 3 12 6 0 11 -7 11 -17 0 -9 3 -13 6 -10 4
3 26 -5 51 -20 24 -14 46 -23 49 -21 2 3 1 19 -2 36 -4 20 -11 29 -19 25 -8
-2 -31 7 -52 21 -39 27 -106 34 -148 16z"/>
<path d="M2190 2696 c0 -29 14 -40 35 -29 13 8 11 12 -10 31 l-25 22 0 -24z"/>
<path d="M2256 2621 c-3 -5 1 -12 10 -15 20 -8 29 -1 19 13 -8 13 -22 14 -29
2z"/>
<path d="M1876 2605 c-3 -8 -2 -15 3 -15 5 0 14 7 21 15 10 12 10 15 -3 15 -8
0 -17 -7 -21 -15z"/>
<path d="M1813 2559 c-15 -15 -17 -33 -3 -24 6 3 13 -1 16 -10 5 -12 15 -14
43 -10 l36 6 -37 -22 c-50 -30 -52 -61 -4 -43 9 3 16 12 16 19 0 24 31 26 51
3 17 -21 18 -21 19 -4 0 14 3 16 13 8 6 -6 29 -13 49 -17 30 -6 39 -4 44 9 5
13 9 14 20 5 8 -6 12 -15 9 -19 -8 -12 24 -21 51 -14 24 6 33 37 15 48 -5 3
-7 16 -5 29 2 12 2 17 -2 10 -4 -8 -13 -9 -30 -2 -35 13 -57 12 -48 -3 5 -8 2
-9 -10 -5 -10 4 -31 7 -47 7 -17 0 -28 4 -24 9 9 15 -5 19 -85 26 -54 5 -78 3
-87 -6z"/>
<path d="M1615 2550 c-3 -5 -1 -10 4 -10 6 0 11 5 11 10 0 6 -2 10 -4 10 -3 0
-8 -4 -11 -10z"/>
<path d="M1747 2510 c-5 -18 -2 -21 14 -17 10 3 19 1 19 -4 0 -5 5 -9 10 -9
17 0 11 20 -7 27 -10 4 -21 11 -24 16 -3 5 -9 -1 -12 -13z"/>
<path d="M2166 2512 c-3 -6 -2 -20 2 -33 l9 -23 6 25 c7 25 -6 48 -17 31z"/>
<path d="M1176 2499 c5 -9 2 -11 -9 -6 -23 9 -12 -15 14 -32 23 -14 87 -17
149 -6 65 11 55 22 -27 29 -42 3 -79 9 -82 14 -3 4 -17 8 -30 10 -16 3 -21 0
-15 -9z"/>
<path d="M1615 2491 c-6 -11 9 -23 19 -14 9 9 7 23 -3 23 -6 0 -12 -4 -16 -9z"/>
<path d="M1721 2470 c0 -8 6 -24 14 -34 11 -15 15 -16 15 -5 0 8 -7 24 -15 35
-11 14 -14 15 -14 4z"/>
<path d="M1750 2471 c0 -6 5 -13 10 -16 6 -3 10 1 10 9 0 9 -4 16 -10 16 -5 0
-10 -4 -10 -9z"/>
<path d="M1120 2423 c0 -11 3 -14 8 -7 4 6 14 14 22 17 10 4 8 6 -7 6 -16 1
-23 -5 -23 -16z"/>
<path d="M1800 2425 c0 -8 5 -15 10 -15 6 0 10 7 10 15 0 8 -4 15 -10 15 -5 0
-10 -7 -10 -15z"/>
<path d="M1866 2431 c-4 -6 -5 -15 -1 -21 17 -27 175 -41 206 -17 13 10 2 12
-58 12 -40 0 -77 5 -81 10 -4 6 -16 11 -27 10 -11 0 -23 4 -26 9 -4 4 -10 3
-13 -3z"/>
<path d="M1050 2411 c0 -25 6 -27 13 -6 4 8 2 17 -3 20 -6 4 -10 -3 -10 -14z"/>
<path d="M1771 2409 c-1 -27 20 -54 32 -42 12 12 7 33 -7 33 -8 0 -17 8 -19
18 -3 11 -5 8 -6 -9z"/>
<path d="M1012 2400 c0 -14 2 -19 5 -12 2 6 2 18 0 25 -3 6 -5 1 -5 -13z"/>
<path d="M1326 2391 c-4 -7 -5 -15 -2 -18 9 -9 19 4 14 18 -4 11 -6 11 -12 0z"/>
<path d="M1610 2390 c0 -5 5 -10 10 -10 6 0 10 5 10 10 0 6 -4 10 -10 10 -5 0
-10 -4 -10 -10z"/>
<path d="M2471 2364 c0 -11 3 -14 6 -6 3 7 2 16 -1 19 -3 4 -6 -2 -5 -13z"/>
<path d="M1395 2360 c-3 -5 -1 -10 4 -10 6 0 11 5 11 10 0 6 -2 10 -4 10 -3 0
-8 -4 -11 -10z"/>
<path d="M2492 2340 c0 -14 2 -19 5 -12 2 6 2 18 0 25 -3 6 -5 1 -5 -13z"/>
<path d="M1922 2333 c14 -17 28 -16 28 1 0 8 -9 14 -19 13 -15 -1 -17 -4 -9
-14z"/>
<path d="M2396 2328 c3 -4 9 -8 15 -8 5 0 9 4 9 8 0 5 -7 9 -15 9 -8 0 -12 -4
-9 -9z"/>
<path d="M1591 2304 c0 -11 3 -14 6 -6 3 7 2 16 -1 19 -3 4 -6 -2 -5 -13z"/>
<path d="M1766 2304 c-3 -9 -3 -21 1 -27 8 -13 10 -18 12 -44 1 -14 3 -15 9
-5 5 7 16 10 26 6 12 -5 19 -1 23 15 3 12 10 18 17 14 6 -3 7 -2 3 3 -5 5 -13
10 -18 10 -22 3 -23 5 -9 14 13 9 13 11 0 20 -23 15 -57 12 -64 -6z"/>
<path d="M1955 2310 c-3 -5 -1 -10 4 -10 6 0 11 5 11 10 0 6 -2 10 -4 10 -3 0
-8 -4 -11 -10z"/>
<path d="M1847 2243 c-4 -3 -7 -11 -7 -17 0 -6 5 -5 12 2 6 6 9 14 7 17 -3 3
-9 2 -12 -2z"/>
<path d="M1901 2181 c-1 -24 -26 -50 -48 -51 -16 0 -64 45 -56 53 3 4 1 7 -5
7 -6 0 -17 -7 -25 -15 -8 -8 -17 -12 -19 -9 -9 8 -40 -35 -33 -45 3 -6 40 -11
83 -11 69 0 80 3 105 25 25 24 39 64 18 51 -5 -4 -12 0 -14 6 -3 7 -6 2 -6
-11z m-106 -31 c-3 -5 -14 -10 -23 -10 -15 0 -15 2 -2 10 20 13 33 13 25 0z"/>
<path d="M1970 2190 c0 -5 5 -10 11 -10 5 0 7 5 4 10 -3 6 -8 10 -11 10 -2 0
-4 -4 -4 -10z"/>
<path d="M2347 2163 c-2 -5 0 -21 4 -38 7 -29 7 -29 8 8 1 35 -3 46 -12 30z"/>
<path d="M2040 2139 c-8 -14 -7 -23 2 -33 7 -7 20 -24 28 -36 8 -13 25 -33 38
-46 12 -13 22 -28 22 -34 0 -5 5 -10 10 -10 6 0 10 -9 10 -19 0 -29 17 -34 41
-13 12 12 28 18 40 15 19 -5 20 -12 15 -72 -3 -36 -3 -60 0 -53 8 16 34 16 34
-1 0 -8 -11 -27 -25 -43 -27 -31 -29 -37 -18 -47 9 -9 63 43 63 60 0 7 4 13
10 13 5 0 9 11 8 25 -1 14 -5 25 -9 25 -12 0 -8 70 4 71 7 1 19 2 27 3 23 2
24 33 1 39 -29 7 -40 75 -16 94 11 7 15 13 9 14 -52 4 -64 3 -68 -8 -3 -7 1
-16 8 -20 19 -12 30 -47 12 -40 -8 3 -17 1 -20 -6 -2 -7 -5 -5 -5 4 -1 15 -39
57 -47 52 -2 -2 -11 -3 -19 -3 -10 0 -15 11 -16 38 -1 27 -3 30 -6 12 -3 -14
-9 -29 -15 -35 -8 -7 -9 -5 -5 8 4 9 2 17 -4 17 -6 0 -19 10 -28 21 -24 29
-68 34 -81 8z"/>
<path d="M1115 2120 c-3 -6 1 -7 9 -4 18 7 21 14 7 14 -6 0 -13 -4 -16 -10z"/>
<path d="M2511 2104 c0 -11 3 -14 6 -6 3 7 2 16 -1 19 -3 4 -6 -2 -5 -13z"/>
<path d="M2502 2060 c0 -14 2 -19 5 -12 2 6 2 18 0 25 -3 6 -5 1 -5 -13z"/>
<path d="M1265 2041 c-3 -5 -1 -12 5 -16 5 -3 10 1 10 9 0 18 -6 21 -15 7z"/>
<path d="M2350 2021 c0 -21 13 -41 26 -41 8 0 14 10 14 25 0 18 -5 25 -20 25
-11 0 -20 -4 -20 -9z"/>
<path d="M2048 1923 c7 -3 16 -2 19 1 4 3 -2 6 -13 5 -11 0 -14 -3 -6 -6z"/>
<path d="M1256 1834 c-9 -24 -7 -31 5 -14 8 11 9 7 5 -18 -4 -20 -2 -31 4 -27
6 3 10 0 10 -8 0 -8 7 -20 15 -27 8 -7 15 -19 15 -27 0 -13 -3 -13 -15 -3 -12
10 -15 10 -15 -4 0 -9 6 -16 14 -16 8 0 23 -11 34 -25 11 -14 25 -25 31 -25 6
0 11 -4 11 -10 0 -5 9 -10 21 -10 12 0 23 -8 26 -20 6 -22 11 -24 33 -10 8 5
11 12 7 17 -5 4 -12 1 -18 -7 -7 -11 -9 -6 -7 17 1 17 6 29 10 27 5 -3 6 -10
3 -15 -4 -5 -2 -9 3 -9 18 0 20 12 4 29 -13 13 -21 15 -31 7 -12 -9 -13 -7 -8
8 6 15 4 17 -13 13 -11 -3 -20 -1 -20 4 0 5 6 9 13 9 7 1 5 6 -5 14 -10 7 -18
17 -18 21 0 4 -12 20 -27 35 -16 16 -40 42 -55 59 -21 24 -27 27 -32 15z"/>
<path d="M1045 1820 c-3 -5 -1 -10 4 -10 6 0 11 5 11 10 0 6 -2 10 -4 10 -3 0
-8 -4 -11 -10z"/>
<path d="M2315 1800 c-3 -5 -1 -10 4 -10 6 0 11 5 11 10 0 6 -2 10 -4 10 -3 0
-8 -4 -11 -10z"/>
<path d="M1955 1790 c-3 -5 -1 -10 4 -10 6 0 11 5 11 10 0 6 -2 10 -4 10 -3 0
-8 -4 -11 -10z"/>
<path d="M2196 1718 c9 -32 14 -35 24 -18 16 24 11 40 -11 40 -16 0 -19 -4
-13 -22z"/>
<path d="M2170 1711 c0 -5 -9 -13 -20 -16 -11 -3 -20 -13 -20 -21 0 -19 -10
-18 -27 4 -14 16 -14 16 -9 -1 3 -11 0 -20 -9 -23 -8 -4 -15 -15 -15 -25 0
-11 -5 -16 -13 -13 -8 3 -18 -9 -27 -31 -8 -20 -17 -30 -20 -24 -5 7 -9 5 -13
-5 -5 -11 -1 -16 13 -16 10 0 22 9 25 20 3 11 13 20 21 20 8 0 14 4 14 9 0 5
10 7 23 5 12 -2 16 -2 10 2 -16 7 -17 27 -1 22 6 -2 21 6 34 19 13 13 30 23
39 23 17 0 21 45 5 55 -5 3 -10 2 -10 -4z"/>
<path d="M1485 1590 c-3 -5 -1 -10 4 -10 6 0 11 5 11 10 0 6 -2 10 -4 10 -3 0
-8 -4 -11 -10z"/>
<path d="M1970 1521 c0 -6 5 -13 10 -16 6 -3 10 1 10 9 0 9 -4 16 -10 16 -5 0
-10 -4 -10 -9z"/>
<path d="M1920 1510 c0 -5 5 -10 10 -10 6 0 10 5 10 10 0 6 -4 10 -10 10 -5 0
-10 -4 -10 -10z"/>
<path d="M1890 1475 c-8 -9 -8 -15 -2 -15 12 0 26 19 19 26 -2 2 -10 -2 -17
-11z"/>
<path d="M2061 1414 c0 -11 3 -14 6 -6 3 7 2 16 -1 19 -3 4 -6 -2 -5 -13z"/>
<path d="M1995 1410 c-3 -5 -1 -10 4 -10 6 0 11 5 11 10 0 6 -2 10 -4 10 -3 0
-8 -4 -11 -10z"/>
<path d="M2010 1380 c0 -6 7 -10 15 -10 8 0 15 2 15 4 0 2 -7 6 -15 10 -8 3
-15 1 -15 -4z"/>
<path d="M1970 1356 c0 -9 5 -16 10 -16 6 0 10 4 10 9 0 6 -4 13 -10 16 -5 3
-10 -1 -10 -9z"/>
<path d="M1961 1122 c-6 -12 -11 -26 -11 -33 0 -7 -6 -20 -13 -28 -8 -9 -24
-43 -37 -76 -13 -33 -31 -71 -40 -85 -10 -14 -21 -36 -25 -50 -4 -14 -16 -40
-26 -59 -23 -39 -15 -56 11 -24 31 38 166 360 156 371 -3 2 -9 -5 -15 -16z"/>
<path d="M1752 980 c0 -14 2 -19 5 -12 2 6 2 18 0 25 -3 6 -5 1 -5 -13z"/>
<path d="M1631 906 c-10 -12 -8 -13 8 -9 12 3 18 9 15 14 -7 12 -10 11 -23 -5z"/>
<path d="M590 2410 c0 -5 5 -10 10 -10 6 0 10 5 10 10 0 6 -4 10 -10 10 -5 0
-10 -4 -10 -10z"/>
<path d="M1920 205 c0 -8 4 -15 10 -15 5 0 7 7 4 15 -4 8 -8 15 -10 15 -2 0
-4 -7 -4 -15z"/>
</g>
</svg>
